<svg xmlns="http://www.w3.org/2000/svg" data-name="Layer 2" viewBox="5 10 80 80" x="0px" y="0px">
    <path d="M74.09787,46.8005792v32.240547c0,1.1771489-.9543997,2.1315486-2.1314554,2.1315486H20.8090612c-1.1772422,0-2.1316419-.9543997-2.1316419-2.1315486V27.8837262c0-1.1771023,.9543997-2.131502,2.1316419-2.131502H53.1156218c1.1770557,0,2.1314554,.9543997,2.1314554,2.131502,0,1.1771489-.9543997,2.1315486-2.1314554,2.1315486H22.9405166v46.8943028h46.8942561v-30.1089984c0-1.1771023,.9543997-2.131502,2.1316419-2.131502,1.1770557,0,2.1314554,.9543997,2.1314554,2.131502Zm6.600239-18.2111697l-31.9345349,31.9345349c-.3060121,.3064783-.698364,.5120714-1.1246551,.5901129l-7.4884386,1.3654927c-.1273652,.0229369-.2554763,.0343588-.3824685,.0343588-.5599965,0-1.1037694-.2211641-1.5071236-.6244717-.4949154-.4943559-.7155201-1.2010649-.5900197-1.8890326l1.3650265-7.4889981c.0779482-.4267107,.2834481-.8191092,.5900197-1.1250746l31.9350943-31.9345349c.3996246-.3996712,.9419056-.6244717,1.5069371-.6244717,.565218,0,1.107499,.2248005,1.5071236,.6244717l6.1230391,6.1234587c.8326289,.8321161,.8326289,2.1820378,0,3.0141539Zm-4.5211842-1.5070769l-3.1089785-3.1088386-29.9574842,29.9565052-.6925831,3.8025406,3.8019346-.6931892,29.9571112-29.957018Z"/>
</svg>
