<svg xmlns="http://www.w3.org/2000/svg" xmlns:xlink="http://www.w3.org/1999/xlink" version="1.1" x="0px" y="0px" viewBox="10 10 80 80" enable-background="new 0 0 100 100" xml:space="preserve">
  <g fill="#FF0000"> <!-- Set the fill color to red -->
    <path d="M74.5,30H69h-8v-7c0-1.104-0.896-2-2-2H41c-1.104,0-2,0.896-2,2v7h-8h-5.5c-1.104,0-2,0.896-2,2s0.896,2,2,2h3.629 l2.876,43.133C32.075,78.184,32.947,79,34,79h32c1.053,0,1.925-0.816,1.996-1.867L70.871,34H74.5c1.104,0,2-0.896,2-2 S75.604,30,74.5,30z M43,25h14v5H43V25z M64.129,75H35.871l-2.733-41H41h18h7.862L64.129,75z"/>
    <path d="M56.586,45.586L50,52.172l-6.586-6.586c-0.78-0.781-2.048-0.781-2.828,0c-0.781,0.781-0.781,2.047,0,2.828L47.172,55   l-6.586,6.586c-0.781,0.781-0.781,2.047,0,2.828C40.976,64.805,41.488,65,42,65s1.024-0.195,1.414-0.586L50,57.828l6.586,6.586   C56.976,64.805,57.488,65,58,65s1.024-0.195,1.414-0.586c0.781-0.781,0.781-2.047,0-2.828L52.828,55l6.586-6.586   c0.781-0.781,0.781-2.047,0-2.828C58.634,44.805,57.366,44.805,56.586,45.586z"/>
  </g>
</svg>
